<?xml version="1.0" encoding="UTF-8"?>
<svg xmlns="http://www.w3.org/2000/svg" xmlns:xlink="http://www.w3.org/1999/xlink" width="20px" height="20px" viewBox="0 0 20 20" version="1.1">
<g id="surface1">
<path style="currentColor" d="M 2.308594 17.171875 C 2.351562 17.4375 2.578125 17.628906 2.84375 17.628906 L 16.679688 17.628906 C 17.410156 17.628906 18.125 17.347656 18.621094 16.808594 C 18.738281 16.679688 18.851562 16.535156 18.957031 16.386719 L 2.183594 16.386719 Z M 2.007812 14.589844 L 19.324219 14.589844 C 19.472656 14.589844 19.609375 14.628906 19.734375 14.695312 C 20.117188 13.285156 20.035156 11.605469 19.28125 10.132812 C 19.101562 9.78125 18.828125 9.480469 18.507812 9.242188 L 11.863281 4.347656 C 10.117188 3.066406 8.011719 2.371094 5.84375 2.371094 L 0.582031 2.371094 C 0.25 2.371094 -0.00390625 2.667969 0.046875 2.996094 L 1.898438 14.601562 C 1.933594 14.597656 1.972656 14.589844 2.007812 14.589844 Z M 5.949219 11.476562 C 5.949219 11.578125 5.867188 11.660156 5.769531 11.660156 L 3.136719 11.660156 C 3.035156 11.660156 2.957031 11.578125 2.957031 11.476562 L 2.957031 11.058594 C 2.957031 10.957031 3.035156 10.878906 3.136719 10.878906 L 5.769531 10.878906 C 5.867188 10.878906 5.949219 10.957031 5.949219 11.058594 Z M 5.84375 3.722656 C 7.730469 3.722656 9.535156 4.316406 11.0625 5.441406 L 15.339844 8.589844 L 2.3125 8.589844 L 1.535156 3.722656 Z M 19.324219 15.015625 L 2.007812 15.015625 C 1.746094 15.015625 1.535156 15.226562 1.535156 15.488281 C 1.535156 15.75 1.746094 15.960938 2.007812 15.960938 L 19.324219 15.960938 C 19.585938 15.960938 19.796875 15.75 19.796875 15.488281 C 19.796875 15.226562 19.585938 15.015625 19.324219 15.015625 Z M 19.324219 15.015625 "/>
</g>
</svg>
