<?xml version="1.0" encoding="UTF-8"?>
<svg xmlns="http://www.w3.org/2000/svg" xmlns:xlink="http://www.w3.org/1999/xlink" width="20px" height="20px" viewBox="0 0 20 20" version="1.1">
<g id="surface1">
<path style="currentColor" d="M 6.179688 10.042969 C 5.722656 10.042969 5.359375 9.679688 5.359375 9.222656 C 5.359375 8.765625 5.722656 8.390625 6.179688 8.390625 C 6.636719 8.390625 7.011719 8.765625 7.011719 9.222656 C 7.011719 9.679688 6.636719 10.042969 6.179688 10.042969 Z M 10.863281 19.96875 C 8.789062 19.96875 7.09375 18.28125 7.09375 16.199219 C 7.09375 14.644531 8.054688 13.25 9.503906 12.6875 L 9.503906 1.371094 C 9.503906 0.621094 10.113281 0.0117188 10.863281 0.0117188 C 11.609375 0.0117188 12.21875 0.621094 12.21875 1.371094 L 12.21875 12.6875 C 13.660156 13.25 14.621094 14.644531 14.621094 16.199219 C 14.632812 18.28125 12.945312 19.96875 10.863281 19.96875 Z M 10.863281 0.480469 C 10.371094 0.480469 9.972656 0.878906 9.972656 1.371094 L 9.972656 4.191406 C 10.101562 4.191406 10.382812 4.167969 10.382812 4.425781 C 10.382812 4.695312 10.101562 4.660156 9.972656 4.660156 L 9.972656 6.085938 C 10.101562 6.085938 10.382812 6.0625 10.382812 6.320312 C 10.382812 6.589844 10.101562 6.554688 9.972656 6.554688 L 9.972656 7.984375 C 10.101562 7.984375 10.382812 7.960938 10.382812 8.21875 C 10.382812 8.484375 10.101562 8.449219 9.972656 8.449219 L 9.972656 9.878906 C 10.101562 9.878906 10.382812 9.855469 10.382812 10.113281 C 10.382812 10.371094 10.113281 10.347656 9.972656 10.347656 L 9.972656 11.773438 C 10.101562 11.773438 10.382812 11.738281 10.382812 12.007812 C 10.382812 12.265625 10.101562 12.242188 9.972656 12.242188 L 9.972656 12.851562 C 9.972656 12.957031 9.914062 13.039062 9.808594 13.074219 C 8.472656 13.53125 7.5625 14.785156 7.5625 16.199219 C 7.5625 18.015625 9.046875 19.5 10.863281 19.5 C 12.675781 19.5 14.164062 18.027344 14.164062 16.199219 C 14.164062 14.785156 13.261719 13.53125 11.914062 13.074219 C 11.820312 13.039062 11.75 12.957031 11.75 12.851562 L 11.75 1.371094 C 11.761719 0.878906 11.355469 0.480469 10.863281 0.480469 Z M 10.863281 18.191406 C 9.773438 18.191406 8.882812 17.300781 8.882812 16.199219 C 8.882812 15.179688 9.644531 14.351562 10.628906 14.234375 L 10.628906 3.863281 C 10.628906 3.546875 11.097656 3.546875 11.097656 3.863281 L 11.097656 14.234375 C 12.078125 14.351562 12.851562 15.179688 12.851562 16.199219 C 12.851562 17.300781 11.960938 18.191406 10.863281 18.191406 Z M 10.863281 14.691406 C 10.03125 14.691406 9.351562 15.367188 9.351562 16.199219 C 9.351562 17.042969 10.019531 17.722656 10.863281 17.722656 C 11.691406 17.722656 12.382812 17.03125 12.382812 16.199219 C 12.382812 15.367188 11.703125 14.691406 10.863281 14.691406 Z M 10.863281 17.136719 C 10.347656 17.136719 9.9375 16.714844 9.9375 16.199219 C 9.9375 15.683594 10.347656 15.273438 10.863281 15.273438 C 11.378906 15.273438 11.796875 15.683594 11.796875 16.199219 C 11.796875 16.714844 11.378906 17.136719 10.863281 17.136719 Z M 10.863281 15.742188 C 10.253906 15.742188 10.253906 16.667969 10.863281 16.667969 C 11.472656 16.667969 11.484375 15.742188 10.863281 15.742188 Z M 7.785156 12.195312 C 6.261719 12.195312 6.308594 9.492188 7.785156 9.492188 C 8.800781 9.492188 9.105469 10.675781 8.601562 10.675781 C 8.472656 10.675781 8.367188 10.570312 8.367188 10.441406 C 8.367188 9.84375 7.128906 9.632812 7.128906 10.875 C 7.128906 12.066406 8.367188 11.832031 8.367188 11.261719 C 8.367188 10.945312 8.835938 10.945312 8.835938 11.261719 C 8.847656 11.773438 8.367188 12.195312 7.785156 12.195312 Z M 6.179688 8.859375 C 5.710938 8.859375 5.710938 9.585938 6.179688 9.585938 C 6.660156 9.585938 6.660156 8.859375 6.179688 8.859375 Z M 6.179688 8.859375 "/>
</g>
</svg>
