<?xml version="1.0" encoding="UTF-8"?>
<svg xmlns="http://www.w3.org/2000/svg" xmlns:xlink="http://www.w3.org/1999/xlink" width="20px" height="20px" viewBox="0 0 20 20" version="1.1">
<g id="surface1">
<path style=" stroke:none;fill-rule:nonzero;fill:rgb(82.745098%,82.745098%,82.745098%);fill-opacity:0;" d="M 12.117188 6.746094 C 9.625 5.59375 6.078125 5 3.332031 5 L 3.332031 15 L 9.203125 15 C 9.230469 15.191406 9.273438 15.378906 9.339844 15.554688 C 9.730469 16.691406 10.808594 17.5 12.082031 17.5 C 13.355469 17.5 14.4375 16.691406 14.824219 15.554688 C 14.894531 15.378906 14.933594 15.191406 14.964844 15 L 16.484375 15 C 17.964844 15 19.167969 13.800781 19.167969 12.316406 L 19.167969 10 Z M 12.117188 6.746094 "/>
<path style="currentColor" d="M 19.078125 5.460938 L 18.246094 3.792969 C 18.070312 3.445312 17.675781 3.261719 17.296875 3.359375 L 10.632812 5.023438 C 10.605469 5.03125 10.585938 5.050781 10.5625 5.058594 C 8.167969 4.007812 4.71875 3.332031 1.667969 3.332031 L 1.667969 5 C 3.863281 5 6.347656 5.390625 8.367188 6.019531 L 6.390625 7.5 L 1.667969 7.5 L 1.667969 9.167969 L 6.667969 9.167969 C 6.847656 9.167969 7.023438 9.109375 7.167969 9 L 10.207031 6.71875 L 16.667969 9.699219 L 16.667969 11.484375 C 16.667969 12.503906 15.835938 13.332031 14.816406 13.332031 L 14.125 13.332031 C 13.914062 11.464844 12.34375 10 10.417969 10 C 8.492188 10 6.917969 11.464844 6.707031 13.332031 L 1.667969 13.332031 L 1.667969 15 L 6.890625 15 C 7.40625 16.496094 8.820312 17.5 10.417969 17.5 C 12.015625 17.5 13.433594 16.492188 13.9375 15.023438 C 13.9375 15.015625 13.9375 15.007812 13.941406 15 L 14.816406 15 C 16.757812 15 18.332031 13.421875 18.332031 11.484375 L 18.332031 9.167969 C 18.332031 8.84375 18.144531 8.546875 17.847656 8.410156 L 12.96875 6.15625 L 17.054688 5.136719 L 17.585938 6.207031 C 17.792969 6.617188 18.296875 6.78125 18.707031 6.578125 C 19.117188 6.371094 19.285156 5.871094 19.078125 5.460938 Z M 12.371094 14.453125 C 12.085938 15.277344 11.300781 15.832031 10.417969 15.832031 C 9.53125 15.832031 8.746094 15.277344 8.453125 14.421875 C 8.375 14.21875 8.332031 13.992188 8.332031 13.75 C 8.332031 12.601562 9.269531 11.667969 10.417969 11.667969 C 11.566406 11.667969 12.5 12.601562 12.5 13.75 C 12.5 13.992188 12.460938 14.21875 12.371094 14.453125 Z M 12.371094 14.453125 "/>
</g>
</svg>
