<svg width="150" height="48" viewBox="0 0 150 48" fill="none" xmlns="http://www.w3.org/2000/svg">
<g clip-path="url(#clip0_2002_85)">
<path d="M8.08526 39.0665L8.07894 39.106L8.0426 39.1155C7.96044 39.2008 7.81665 39.2798 7.80559 39.373C7.70921 40.2721 7.60018 41.1711 7.56542 42.0718C7.51328 43.4559 8.2638 44.298 9.6416 44.4798C9.84701 44.4924 10.054 44.5145 10.2594 44.5145C13.8556 44.5161 17.4533 44.5145 21.0495 44.5145H21.612C21.4351 45.2603 21.2786 45.9302 21.1206 46.5986C20.9911 47.0489 20.8631 47.4992 20.7272 47.9748C20.6119 47.9748 20.5092 47.9748 20.408 47.9748C15.0596 47.9748 9.70955 47.9748 4.36109 47.9716C4.1067 47.9716 3.84758 47.9306 3.59793 47.8784C3.11128 47.7757 2.62936 47.6525 2.14429 47.5371L2.14903 47.5403C2.00682 47.436 1.86462 47.3317 1.72242 47.2274L1.7319 47.2338C1.66079 47.1958 1.59127 47.1579 1.52017 47.12L1.52333 47.1216C1.31476 46.913 1.10462 46.7029 0.896052 46.4943L0.899212 46.4975C0.793349 46.3568 0.689066 46.2178 0.583203 46.0772L0.586363 46.0803C0.548442 45.9334 0.505781 45.788 0.4726 45.6411C0.303535 44.8669 0.00490624 44.0863 0.0001661 43.3058C-0.00615408 42.067 0.169231 40.8251 0.297215 39.5863C0.357256 39.0033 0.48998 38.4266 0.589523 37.8467C0.614804 37.8009 0.646405 37.7582 0.663785 37.7093C1.50595 35.2365 3.14446 33.5158 5.56509 32.5425C6.0786 32.3355 6.62056 32.1981 7.14829 32.029C7.61441 32.0116 8.0821 31.9784 8.54821 31.9784C44.9509 31.9769 81.3551 31.9784 117.758 31.9753C125.86 31.9753 133.964 31.9642 142.067 31.9579C142.079 31.969 142.095 31.9895 142.103 31.9879C142.133 31.98 142.16 31.9642 142.188 31.9516C142.359 31.9121 142.531 31.8726 142.702 31.8346C142.857 31.8346 143.018 31.8647 143.165 31.8346C145.494 31.3354 147.354 30.1187 148.722 28.1658C148.825 28.0188 148.87 27.8308 148.943 27.6633L148.937 27.6696C149.005 27.6981 149.134 27.7297 149.133 27.755C149.114 28.0899 149.109 28.4312 149.041 28.7583C148.828 29.7869 148.594 30.8139 148.027 31.724C147.994 31.7778 148.017 31.8694 148.016 31.9437L148.019 31.9405C147.775 32.2881 147.531 32.6357 147.287 32.9833L147.29 32.9802C147.151 33.1224 147.012 33.263 146.873 33.4052L146.88 33.3989C146.704 33.5743 146.527 33.7497 146.352 33.9266L146.358 33.9203C146.216 34.0594 146.075 34.1968 145.933 34.3359C145.794 34.4401 145.653 34.5444 145.514 34.6503L145.518 34.6487C145.309 34.7878 145.099 34.9268 144.89 35.0658L144.892 35.0643C144.089 35.3724 143.285 35.6789 142.482 35.987C142.384 36.0233 142.288 36.0597 142.19 36.096C141.841 36.0976 141.493 36.1008 141.144 36.1024C141.109 36.1008 141.075 36.0976 141.04 36.0976C121.42 36.0976 101.801 36.0976 82.1815 36.1024C82.0156 36.1024 81.8512 36.1592 81.6853 36.1893L81.6933 36.2177C81.6222 36.2193 81.551 36.2224 81.4799 36.224C81.2903 36.2177 81.0992 36.2035 80.9095 36.2035C58.0574 36.2035 35.2052 36.2035 12.353 36.2035C12.146 36.2035 11.939 36.2209 11.7304 36.2303C10.7698 36.2398 9.93549 36.5732 9.21973 37.2068C9.18971 37.2574 9.16127 37.3079 9.13125 37.3585L9.13599 37.3522C9.03013 37.458 8.92426 37.5639 8.8184 37.6698L8.82314 37.6634C8.53399 38.0964 8.24484 38.5293 7.96043 38.9654C7.95727 38.9717 8.03786 39.0318 8.07894 39.0665H8.08526Z" fill="#FB1B1B"/>
<path d="M89.6139 -0.000128943C90.9522 0.0757132 92.2968 0.0915137 93.6256 0.241618C95.1377 0.412263 96.6451 0.66033 98.1398 0.954218C100.622 1.44403 103.106 1.94491 105.564 2.54058C107.655 3.0462 109.71 3.6956 111.783 4.27705C114.969 5.17294 117.998 6.48596 121.033 7.77369C123.387 8.77228 125.708 9.85145 128.066 10.8437C129.88 11.6085 131.702 12.3716 133.568 12.9942C135.644 13.6878 137.758 14.2835 139.886 14.8017C141.196 15.1209 142.556 15.2773 143.904 15.3895C145.312 15.5049 146.733 15.5033 148.148 15.5049C148.752 15.5049 149.354 15.3864 150.002 15.4132C149.596 15.6629 149.193 15.9157 148.783 16.159C148.155 16.5335 147.532 16.9174 146.889 17.2634C146.66 17.3867 146.377 17.4768 146.119 17.4752C144.46 17.461 142.803 17.4183 141.144 17.3788C140.006 17.3519 138.869 17.3124 137.731 17.2808C136.333 17.2429 134.934 17.2081 133.538 17.1702C132.469 17.1402 131.401 17.1039 130.332 17.0738C128.899 17.0343 127.465 17.0012 126.034 16.9617C125.001 16.9332 123.966 16.8969 122.932 16.8669C121.518 16.8274 120.102 16.7926 118.687 16.7547C117.497 16.7215 116.307 16.6867 115.117 16.652C113.91 16.6172 112.703 16.584 111.496 16.5493C110.306 16.5161 109.116 16.4797 107.928 16.4481C106.478 16.4086 105.027 16.3755 103.578 16.336C102.509 16.3059 101.441 16.2696 100.371 16.2396C99.0594 16.2017 97.748 16.1685 96.4365 16.1321C95.1946 16.0974 93.9527 16.0642 92.7108 16.0263C92.5828 16.0231 92.4548 16.001 92.1862 15.9725C92.36 15.8825 92.4074 15.8367 92.4564 15.8351C93.3855 15.7972 94.3161 15.7829 95.2436 15.7261C96.7494 15.6344 98.2536 15.5112 99.7593 15.4116C100.462 15.3642 101.167 15.3326 101.872 15.3058C102.888 15.2663 103.905 15.2568 104.92 15.1983C106.408 15.1114 107.893 14.9866 109.382 14.8934C109.848 14.8649 110.322 14.9218 110.786 14.8823C112.175 14.7638 113.555 14.6074 114.77 13.8158C115.906 13.0747 116.467 10.9069 115.76 9.99524C115.449 9.59391 115.048 9.16571 114.593 8.98401C111.96 7.9317 109.33 6.85569 106.637 5.97244C104.327 5.21244 101.949 4.63888 99.5745 4.09851C98.1224 3.76828 96.6182 3.67822 95.1425 3.44911C92.3316 3.0146 89.4985 3.10466 86.6766 3.16312C85.2008 3.19314 83.7187 3.41593 82.2635 3.67506C80.3295 4.02109 78.4003 4.424 76.4995 4.91697C73.3995 5.71964 70.4685 6.98525 67.6339 8.45469C64.2478 10.2101 61.0798 12.31 58.1078 14.7022C57.6954 15.034 57.2988 15.3879 56.8706 15.7008C56.7047 15.8224 56.4772 15.9014 56.2718 15.9172C55.6239 15.9694 54.9714 15.9852 54.3204 16.0136C54.2098 15.9836 54.0976 15.9299 53.987 15.9283C51.5695 15.9251 49.1521 15.9283 46.7346 15.9346C46.6224 15.9346 46.5102 15.9868 46.3965 16.0152C45.8324 15.9852 45.2683 15.9251 44.7058 15.9315C43.5334 15.9457 42.361 15.9899 41.1887 16.0294C39.2942 16.0942 37.3997 16.1479 35.5068 16.2427C34.0879 16.3138 32.6706 16.4197 31.2565 16.554C29.7791 16.6946 28.3065 16.8732 26.8339 17.0612C25.0485 17.2903 23.252 17.4799 21.4855 17.8149C19.3192 18.2257 17.1467 18.6681 15.0326 19.2859C12.6989 19.9685 10.3936 20.7822 8.14043 21.6971C6.39606 22.4049 4.75123 23.3545 3.06216 24.1967C2.88362 24.2852 2.70507 24.3721 2.45068 24.391C2.59921 24.1809 2.72877 23.9518 2.901 23.7653C4.82233 21.6986 7.07548 20.087 9.60829 18.8482C12.7478 17.3124 16.0407 16.2333 19.4551 15.5112C20.9262 15.1999 22.3924 14.8649 23.8714 14.5995C24.9584 14.4051 26.0613 14.304 27.1579 14.165C28.5594 13.988 29.9609 13.8016 31.3639 13.6436C31.9596 13.5772 32.5648 13.5788 33.1636 13.5361C34.5635 13.4366 35.9634 13.3276 37.3634 13.2248C37.5008 13.2154 37.6415 13.2233 37.7789 13.2217C40.5124 13.179 43.2459 13.1364 45.9793 13.0921C46.3981 13.0921 46.8152 13.0921 47.2339 13.0921C48.9941 13.3181 50.6326 12.773 52.2711 12.2737C55.9716 11.1455 59.4429 9.49278 62.8432 7.67099C65.0758 6.4749 67.3194 5.29144 69.601 4.19331C72.6916 2.70491 75.9165 1.56096 79.282 0.867316C80.7403 0.567107 82.2303 0.398042 83.714 0.238458C84.9417 0.105734 86.1789 0.0741332 87.4129 -0.00170898C88.146 -0.00170898 88.8792 -0.00170898 89.6123 -0.00170898L89.6139 -0.000128943Z" fill="#1F1F1F"/>
<path d="M125.639 44.3155C126.682 44.2886 127.758 43.358 128.022 42.2108C128.354 40.7667 128.652 39.3146 128.978 37.8689C129.027 37.6508 129.08 37.4344 129.428 37.4375C131.925 37.4549 134.421 37.447 137.001 37.447C136.532 39.2862 136.218 41.138 135.578 42.8713C134.838 44.8685 133.334 46.3237 131.378 47.1991C130.528 47.5798 129.569 47.7205 128.659 47.9717C125.664 47.9654 122.67 47.9559 119.676 47.9543C118.396 47.9543 117.116 47.9685 115.837 47.9764C113.737 47.7568 112.164 46.8246 111.433 44.7421C110.973 43.4338 111.177 42.1382 111.485 40.8425C111.722 39.8471 111.975 38.8548 112.198 37.8562C112.258 37.5845 112.33 37.4407 112.65 37.4423C115.247 37.4533 117.845 37.4486 120.501 37.4486C120.175 38.8548 119.847 40.2295 119.542 41.6104C119.393 42.2851 119.226 42.9582 119.665 43.6218C119.956 44.0611 120.311 44.3092 120.836 44.3171C120.874 44.3408 120.91 44.3645 120.948 44.3866C122.476 44.3866 124.004 44.3866 125.532 44.3866L125.644 44.3155H125.639Z" fill="#1F1F1F"/>
<path d="M83.4549 47.9719C81.0943 47.7191 79.7623 46.474 79.3231 44.2114C79.1572 43.3582 79.38 42.4907 79.6012 41.6391C79.9598 40.2581 80.2458 38.8598 80.5618 37.4678H88.5821C88.2503 38.9214 87.9406 40.3498 87.593 41.7686C87.3386 42.8067 87.7431 43.5825 88.7623 43.908C88.9977 43.938 89.2331 43.9933 89.4685 43.9949C92.0772 44.0044 94.6859 44.006 97.2961 44.0091C96.9848 45.319 96.6735 46.6273 96.3623 47.9371C93.7694 47.9419 91.1766 47.9434 88.5853 47.9498C86.8741 47.9545 85.1645 47.964 83.4549 47.9703V47.9719Z" fill="#1F1F1F"/>
<path d="M76.1704 37.5576C75.63 38.67 74.9569 39.6812 73.9141 40.3875C73.5238 40.6513 73.0893 40.8504 72.6169 41.1111C72.8033 41.7305 72.9961 42.4005 73.2078 43.0657C73.7039 44.6252 74.2111 46.1799 74.7089 47.7394C74.7294 47.8026 74.7136 47.8769 74.7136 47.9448C74.4023 47.9464 74.0926 47.9512 73.7814 47.9512C71.4524 47.9591 69.1234 47.967 66.7944 47.9749C66.2509 46.3237 65.6947 44.6773 65.1685 43.0214C64.6503 41.3908 64.1605 39.7507 63.6612 38.1154C63.6169 37.97 63.5932 37.8199 63.5601 37.6714C63.7007 37.6335 63.8413 37.5655 63.9819 37.5639C68.0442 37.5576 72.1065 37.5576 76.1688 37.5576H76.1704Z" fill="#1F1F1F"/>
<path d="M99.4133 47.926C99.6614 46.6588 99.9016 45.39 100.158 44.126C100.523 42.3137 100.899 40.5045 101.27 38.6938C101.35 38.2988 101.436 37.9038 101.527 37.4756H109.981C109.47 40.0179 108.966 42.5554 108.45 45.0898C108.255 46.0426 108.031 46.9906 107.819 47.9402C105.018 47.9355 102.216 47.9307 99.4133 47.926Z" fill="#1F1F1F"/>
<path d="M50.236 37.5607C50.029 38.5087 49.8315 39.4567 49.6135 40.4016C49.1379 42.4762 48.6528 44.5492 48.1693 46.6207C48.0666 47.0615 47.9576 47.5008 47.8501 47.9416C45.1846 47.9384 42.5191 47.9353 39.8535 47.9321C40.1332 46.6696 40.4018 45.4024 40.6941 44.1432C41.165 42.1128 41.6516 40.0872 42.1319 38.0584C42.1714 37.8941 42.222 37.7313 42.2678 37.5686C44.9239 37.5654 47.5784 37.5623 50.2344 37.5591L50.236 37.5607Z" fill="#1F1F1F"/>
<path d="M33.7813 37.5636C33.342 39.4044 32.8981 41.2435 32.4651 43.0859C32.127 44.5237 31.8062 45.9647 31.4744 47.4026C31.4302 47.5953 31.367 47.7833 31.3133 47.973C31.1063 47.9666 30.9009 47.9524 30.6939 47.9524C28.3665 47.9477 26.0391 47.9445 23.7117 47.9398C23.8839 47.1023 24.0372 46.2602 24.2315 45.4275C24.8114 42.9484 25.4071 40.4741 25.9964 37.9981C26.0312 37.8512 26.0786 37.7074 26.1197 37.562C28.673 37.562 31.2264 37.562 33.7813 37.562V37.5636Z" fill="#1F1F1F"/>
<path d="M60.647 37.5608C60.3626 38.8327 60.0845 40.1063 59.7906 41.3766C59.3245 43.3864 58.8473 45.3931 58.3764 47.4013C58.3338 47.5799 58.2974 47.76 58.2595 47.9385C57.9988 47.9433 57.7397 47.9496 57.479 47.9512C55.2069 47.9575 52.9332 47.9622 50.6611 47.9686L50.6484 47.9622C50.6484 47.8864 50.6484 47.8106 50.65 47.7363C50.9471 46.4217 51.2378 45.1071 51.5412 43.7941C52.0104 41.7653 52.4876 39.7381 52.9632 37.7109C52.9774 37.6509 53.0153 37.5956 53.0422 37.5371C55.5766 37.545 58.1126 37.5529 60.647 37.5608Z" fill="#1F1F1F"/>
<path d="M141.147 36.1009C140.795 36.1341 140.442 36.1973 140.088 36.1973C122.581 36.202 105.076 36.202 87.5692 36.2005C85.6083 36.2005 83.6491 36.191 81.6882 36.1878C81.8541 36.1578 82.0185 36.1009 82.1844 36.1009C101.804 36.0962 121.423 36.0962 141.043 36.0962C141.077 36.0962 141.112 36.0993 141.147 36.1009Z" fill="#009CCC"/>
<path d="M142.069 31.9611C142.109 31.9595 142.149 31.9564 142.189 31.9548C142.161 31.9674 142.134 31.983 142.105 31.9909C142.095 31.9924 142.08 31.9721 142.069 31.9611Z" fill="#457488"/>
<path d="M35.7816 20.0064C40.1883 20.008 44.5951 20.0096 49.0018 20.0112C49.0713 20.008 49.1424 20.0048 49.2119 20.0017C51.375 20.155 53.2031 21.9515 53.1858 24.1335C53.1747 25.4655 52.7544 26.6932 52.4969 27.9651C52.3136 28.8705 52.0987 29.7695 51.898 30.6717C49.2341 30.6765 46.5685 30.6796 43.9046 30.6844C44.1337 29.6336 44.377 28.5861 44.5872 27.5322C44.7294 26.8227 44.8716 26.107 44.9284 25.3865C44.9869 24.6502 44.4023 24.0577 43.6407 24.0466C41.9785 24.0245 40.3163 24.0261 38.6541 24.0466C37.8246 24.0561 36.7154 25.0373 36.5084 25.8889C36.1213 27.4848 35.7389 29.0838 35.3534 30.6796C32.8253 30.6796 30.2957 30.6828 27.7676 30.6844C27.905 29.9907 28.0267 29.2939 28.1847 28.6035C28.4517 27.4405 28.6524 26.2508 29.0395 25.1274C29.9401 22.5124 31.8662 20.9355 34.4622 20.1249C34.7466 20.0364 35.0611 20.0412 35.3613 20.0033L35.78 20.0064H35.7816Z" fill="#1F1F1F"/>
<path d="M76.2813 20.0063C77.6528 20.1975 78.7572 20.8389 79.4935 22.0177C80.0465 22.9025 80.2804 23.8679 80.0465 24.9234C79.6468 26.7278 79.2692 28.5369 78.8789 30.3445C78.8536 30.4583 78.8046 30.5673 78.7683 30.6795C76.2481 30.6826 73.7295 30.6905 71.2094 30.681C71.0861 30.681 70.9629 30.5436 70.8396 30.4693C71.1793 28.9778 71.5032 27.4815 71.8619 25.9946C72.1116 24.955 71.4558 24.0464 70.3909 24.0385C68.9009 24.0275 67.4109 24.0322 65.9225 24.037C64.8196 24.0401 63.7689 24.7559 63.4766 25.8335C63.0421 27.4356 62.6977 29.0599 62.3153 30.6763C59.7572 30.6763 57.2007 30.6747 54.6426 30.6732C54.9696 29.2179 55.3046 27.7659 55.619 26.3091C55.8513 25.2346 56.1989 24.2187 56.8562 23.318C58.0966 21.6179 59.6861 20.4613 61.7923 20.0837C61.9029 20.0631 62.0119 20.0331 62.1225 20.0078C62.2268 20.011 62.3311 20.0126 62.4354 20.0157C63.317 20.0078 64.1971 19.9905 65.0788 19.992C68.6402 19.9936 72.2 20.0015 75.7615 20.0078C75.9353 20.0078 76.1091 20.0078 76.2845 20.0078L76.2813 20.0063Z" fill="#1F1F1F"/>
<path d="M135.418 20.0081C137.24 20.2877 138.618 21.1742 139.365 22.9075C139.845 24.0214 139.771 25.1717 139.526 26.3172C139.213 27.7756 138.867 29.2276 138.535 30.6829C136.066 30.686 133.596 30.6908 131.127 30.6813C130.986 30.6813 130.845 30.5422 130.705 30.468C131.014 29.0744 131.332 27.6824 131.631 26.2856C131.86 25.2112 131.438 24.3437 130.324 24.1288C130.209 24.0988 130.093 24.0435 129.978 24.0419C128.556 24.0356 127.135 24.0356 125.713 24.0419C125.581 24.0419 125.448 24.1004 125.314 24.132C124.258 24.3358 123.462 24.9599 123.165 25.9427C122.708 27.4596 122.435 29.0333 122.084 30.5817C121.991 30.6165 121.898 30.6829 121.804 30.6829C119.289 30.6892 116.775 30.6908 114.26 30.6797C114.152 30.6797 114.046 30.5407 113.94 30.468C114.426 28.5056 114.595 26.4499 115.522 24.6155C116.713 22.2628 118.679 20.836 121.188 20.125C121.509 20.0334 121.856 20.0397 122.191 20.0002C122.201 20.0144 122.214 20.0397 122.22 20.0381C122.247 20.0334 122.272 20.0191 122.299 20.0097C125.737 20.0033 129.177 19.9939 132.615 19.9907C133.445 19.9907 134.272 20.0065 135.102 20.0144C135.206 20.0112 135.311 20.0097 135.415 20.0065L135.418 20.0081Z" fill="#1F1F1F"/>
<path d="M122.299 20.0111C122.273 20.0205 122.247 20.0346 122.221 20.0393C122.215 20.0393 122.202 20.0142 122.193 20.0017C122.229 20.0048 122.263 20.008 122.299 20.0111Z" fill="#D2D4D6"/>
<path d="M105.226 20.0129C107.966 20.0097 110.706 20.0066 113.445 20.0034C113.476 20.0303 113.504 20.0587 113.534 20.0856C113.316 21.1884 113.103 22.2913 112.88 23.3942C112.516 25.1907 112.148 26.9856 111.78 28.7805C111.649 29.422 111.508 30.062 111.372 30.7035C110.559 30.6987 109.745 30.6956 108.931 30.6908C106.94 30.6813 104.95 30.6719 102.959 30.6624C103.213 29.3825 103.466 28.1027 103.722 26.8245C104.084 25.0153 104.441 23.2046 104.811 21.397C104.901 20.9562 105.033 20.5232 105.146 20.0871C105.172 20.0619 105.199 20.0382 105.226 20.0129Z" fill="#1F1F1F"/>
<path d="M92.6082 20.087C92.3538 21.2278 92.101 22.3686 91.8418 23.5094C91.2999 25.8968 90.7532 28.2827 90.2081 30.6686C87.5441 30.6749 84.8801 30.6796 82.2178 30.686C82.4279 29.6668 82.6207 28.6445 82.853 27.6317C83.3933 25.2775 83.9543 22.9279 84.5073 20.5768C84.5452 20.4141 84.5863 20.2498 84.6258 20.087C84.6558 20.0602 84.6858 20.0317 84.7143 20.0049C87.315 20.0049 89.9173 20.0049 92.5181 20.0049C92.5481 20.0317 92.5765 20.0602 92.6066 20.087H92.6082Z" fill="#1F1F1F"/>
<path d="M84.7147 20.0034C84.6849 20.03 84.6552 20.0582 84.627 20.0849C84.6567 20.0582 84.6865 20.03 84.7147 20.0034Z" fill="#D2D4D6"/>
<path d="M13.6833 15.14L15.859 10.5926C15.9586 10.3856 16.1719 10.2592 16.401 10.2719L45.2194 12.6119C45.2194 12.6119 26.4295 11.2673 14.3912 15.9126C13.9156 16.0959 13.4621 15.5982 13.6817 15.1384L13.6833 15.14Z" fill="#FB1B1B"/>
</g>
<defs>
<clipPath id="clip0_2002_85">
<rect width="150" height="48" fill="white"/>
</clipPath>
</defs>
</svg>
